<svg width="512" height="350" xmlns="http://www.w3.org/2000/svg">
 <metadata id="metadata31">image/svg+xml</metadata>

 <g>
  <title>Layer 1</title>
  <path id="path2" d="m0,0l0,350.0028l512.4002,0l0,-350.0028l-512.4002,0z" fill-rule="evenodd" fill="#003557"/>
  <path id="path4" d="m256.00003,113.48761l-78.6398,181.7772c-20.4224,0.0827 -40.8445,0.1652 -61.2669,0.248c-5.5001,-0.5111 -6.7848,-4.1091 -5.6555,-9.4741c31.7988,-75.2337 63.5975,-150.4672 95.3963,-225.7009c2.459,-3.9953 6.1809,-5.821 10.9487,-5.8506c13.176,0 26.352,0 39.2172,0c12.8652,0 26.0411,0 39.2172,0c4.7678,0.0296 8.4896,1.8553 10.9486,5.8506c31.7989,75.2337 63.5975,150.4672 95.3963,225.7009c1.1294,5.365 -0.1553,8.963 -5.6555,9.4741c-20.4223,-0.0828 -40.8445,-0.1653 -61.2668,-0.248l-78.6398,-181.7772z" fill-rule="evenodd" fill="#da0016"/>
  <g id="Layer1000">
   <path id="path6" d="m86.66465,186.2574c-0.414,-0.4696 -0.7638,-1.0258 -1.051,-1.6687c-0.2872,-0.6429 -0.4309,-1.446 -0.4309,-2.4101l0,-14.4991c0,-1.0382 0.1782,-1.9156 0.5344,-2.6327c0.3554,-0.7171 0.8039,-1.3038 1.3438,-1.7615c0.54,-0.4571 1.1256,-0.7907 1.7571,-1.0008c0.6314,-0.2102 1.2114,-0.3156 1.7401,-0.3156l16.9189,0c0.8264,0 1.5733,0.1547 2.24,0.464c0.6659,0.3086 1.2339,0.7227 1.7049,1.2421c0.4709,0.5188 0.8272,1.1243 1.0687,1.8171c0.2406,0.6921 0.3618,1.4211 0.3618,2.1874l0,3.0037l-7.1397,0l0,-2.5572l-12.4027,-0.0536l0.0441,13.3642l12.3586,0.01l0.0177,-2.8428l-6.1745,0l-0.0184,-5.2056l13.3149,-0.0174l0,8.7978c0,0.8649 -0.15,1.65 -0.4485,2.3546c-0.2984,0.7047 -0.7004,1.3101 -1.2058,1.8171c-0.5055,0.5063 -1.0799,0.9023 -1.7226,1.1866c-0.6434,0.2844 -1.3101,0.4265 -1.9985,0.4265l-16.9189,0c-0.7124,0 -1.4064,-0.1608 -2.0843,-0.4826c-0.678,-0.3211 -1.2813,-0.7289 -1.8092,-1.2234z" fill-rule="evenodd" fill="#ffffff"/>
   <path id="path8" d="m153.06615,187.9896l-8.6162,0l-7.2978,-8.4133l-5.7268,-0.0357l0.0534,8.449l-7.1568,0l0,-26.066l21.5587,0c0.9977,0.1238 1.8847,0.4089 2.6609,0.8547c0.333,0.1989 0.6599,0.4403 0.9814,0.7254c0.3215,0.2851 0.6096,0.6259 0.8653,1.0223c0.2548,0.3971 0.4601,0.8617 0.6158,1.3945c0.1549,0.5333 0.2324,1.1467 0.2324,1.8408l0,8.4778c0,1.9121 -2.925,3.3928 -5.7253,3.3684l7.555,8.3821zm-10.772,-19.8906c-3.4626,0.0119 -6.9244,0.0237 -10.387,0.0356c-0.006,1.8853 -0.0116,3.7706 -0.0178,5.6558c3.4997,0.0182 6.9995,0.0357 10.4993,0.0538c1.4958,-0.5359 1.4501,-1.8821 1.4152,-2.8589c-0.0333,-0.9391 -0.072,-2.2229 -1.5097,-2.8863z" fill-rule="evenodd" fill="#ffffff"/>
   <path id="path10" d="m164.47935,187.9981l0,-26.1018l25.7803,0l0,6.6833l-16.4492,0l0,3.0076l13.1118,0l0,6.7201l-13.1118,0l0,3.0076l16.4492,0l0,6.6832l-25.7803,0z" fill-rule="evenodd" fill="#ffffff"/>
   <path id="path12" d="m220.00105,187.9616l-10.5163,-19.81l0.0357,19.8275l-6.6925,0l0,-26.0126l10.9454,-0.0181l9.9451,19.4163l0.0714,-19.3982l7.1923,0l0,26.0126l-10.9811,-0.0175z" fill-rule="evenodd" fill="#ffffff"/>
   <path id="path14" d="m285.83955,188.0226l0,-25.9588l21.5196,0c0.4431,0 0.9681,0.0919 1.5774,0.2769c0.6093,0.1845 1.1954,0.4987 1.7599,0.9414c0.5644,0.4434 1.0462,1.0339 1.4451,1.7728c0.3975,0.7383 0.597,1.6735 0.597,2.8061c0,4.8247 0,9.6501 0,14.4749c0,0.788 -0.1431,1.5263 -0.4315,2.2156c-0.2876,0.6892 -0.675,1.2922 -1.1622,1.8094c-0.4871,0.5173 -1.057,0.9234 -1.7103,1.2183c-0.6526,0.2956 -1.3447,0.4434 -2.0754,0.4434l-21.5196,0zm7.7245,-6.325c3.4161,-0.0118 6.8322,-0.0236 10.2483,-0.0354c1.5156,0.1093 2.1403,-0.896 2.1326,-2.6906c0.0124,-2.8806 0.0247,-5.7605 0.0371,-8.6411c-0.1709,-1.268 -0.8142,-2.1553 -2.223,-2.4236c-3.3983,0 -6.7967,0 -10.195,0c0,4.5969 0,9.1938 0,13.7907z" fill-rule="evenodd" fill="#ffffff"/>
   <path id="path16" d="m330.09335,188.0048l0,-26.0125l7.8199,0l0,25.9757l-7.8199,0.0368z" fill-rule="evenodd" fill="#ffffff"/>
   <path id="path18" d="m426.81725,188.1057l-8.6162,0l-7.2978,-8.4134l-5.7269,-0.0356l0.0535,8.449l-7.1568,0l0,-26.0661l21.5587,0c0.9977,0.1238 1.8847,0.409 2.6608,0.8548c0.3331,0.1989 0.66,0.4402 0.9815,0.7253c0.3215,0.2852 0.6096,0.626 0.8653,1.0224c0.2548,0.3971 0.4601,0.8617 0.6158,1.3944c0.1549,0.5334 0.2324,1.1468 0.2324,1.8409l0,8.4777c0,1.9122 -2.925,3.3929 -5.7253,3.3685l7.555,8.3821zm-10.772,-19.8907c-3.4626,0.0119 -6.9244,0.0238 -10.387,0.0357c-0.006,1.8853 -0.0117,3.7705 -0.0178,5.6558c3.4997,0.0181 6.9995,0.0356 10.4993,0.0538c1.4958,-0.5359 1.4501,-1.8822 1.4152,-2.8589c-0.0333,-0.9392 -0.072,-2.2229 -1.5097,-2.8864z" fill-rule="evenodd" fill="#ffffff"/>
   <path id="path20" d="m356.28045,188.0413l0,-26.1018l25.7802,0l0,6.6833l-16.4491,0l0,3.0076l13.1117,0l0,6.7201l-13.1117,0l0,3.0076l16.4491,0l0,6.6832l-25.7802,0z" fill-rule="evenodd" fill="#ffffff"/>
   <path id="path22" d="m255.81085,168.2618l-8.487,19.618c-2.2041,0.009 -4.4081,0.0179 -6.6122,0.0268c-0.5936,-0.0552 -0.7322,-0.4435 -0.6103,-1.0225c3.4318,-8.1195 6.8636,-16.2389 10.2955,-24.3584c0.2654,-0.4312 0.667,-0.6282 1.1816,-0.6314c1.422,0 2.844,0 4.2324,0c1.3885,0 2.8105,0 4.2325,0c0.5146,0.003 0.9162,0.2002 1.1816,0.6314c3.4319,8.1195 6.8637,16.2389 10.2955,24.3584c0.1219,0.579 -0.0168,0.9673 -0.6104,1.0225c-2.204,-0.009 -4.408,-0.0179 -6.6121,-0.0268l-8.4871,-19.618z" fill-rule="evenodd" fill="#ffffff"/>
  </g>
 </g>
</svg>