<?xml version="1.0" standalone="no"?>
<!DOCTYPE svg PUBLIC "-//W3C//DTD SVG 20010904//EN"
 "http://www.w3.org/TR/2001/REC-SVG-20010904/DTD/svg10.dtd">
<svg version="1.0" xmlns="http://www.w3.org/2000/svg"
 width="1024.000000pt" height="1024.000000pt" viewBox="0 0 1024.000000 1024.000000"
 preserveAspectRatio="xMidYMid meet">
<metadata>
Created by potrace 1.16, written by Peter Selinger 2001-2019
</metadata>
<g transform="translate(0.000000,1024.000000) scale(0.100000,-0.100000)"
fill="#000000" stroke="none">
<path d="M3986 8987 c-19 -243 -37 -579 -46 -874 -10 -327 -10 -335 14 -487
21 -133 30 -166 61 -225 81 -154 144 -189 267 -151 35 11 82 32 104 47 55 37
274 235 274 248 -1 38 -17 37 -161 -15 -79 -29 -168 -61 -197 -71 l-53 -18
-11 27 c-7 17 -14 175 -19 417 -4 215 -12 442 -19 505 -15 158 -47 343 -71
413 -22 66 -113 252 -127 261 -5 3 -12 -32 -16 -77z"/>
<path d="M5044 8676 c-187 -59 -329 -227 -391 -464 -61 -238 -15 -479 120
-614 67 -67 132 -86 242 -70 195 29 349 158 438 368 32 74 16 84 -46 27 -61
-56 -160 -125 -250 -173 -57 -31 -93 -43 -137 -47 -79 -7 -100 7 -134 91 -27
67 -34 161 -20 247 l6 36 25 -25 c47 -47 138 -15 237 82 104 103 188 304 171
411 -17 118 -127 173 -261 131z m73 -277 c-19 -99 -60 -171 -137 -242 l-55
-50 -9 32 c-17 60 79 259 159 329 53 48 62 33 42 -69z"/>
<path d="M7026 7915 c-151 -32 -388 -133 -461 -196 -51 -45 -100 -122 -122
-195 -18 -56 -19 -120 -15 -1496 2 -791 7 -1438 10 -1438 4 0 33 51 64 113 54
107 59 121 97 322 126 657 217 1395 262 2132 10 162 16 206 28 217 28 24 145
56 351 96 l202 39 153 -9 c84 -6 162 -13 173 -18 17 -6 -14 -42 -218 -253
-264 -273 -264 -274 -236 -372 24 -83 116 -162 293 -251 40 -20 77 -36 81 -36
5 0 135 -58 288 -129 154 -72 285 -131 292 -133 8 -2 18 7 22 19 8 19 -14 40
-201 195 -388 320 -443 366 -447 376 -4 14 93 95 280 231 174 127 246 196 293
284 62 112 50 189 -44 290 -97 103 -218 164 -389 197 -136 26 -654 37 -756 15z"/>
<path d="M8573 7870 c-59 -12 -116 -44 -148 -82 -25 -30 -27 -37 -23 -104 6
-88 35 -146 96 -189 40 -27 51 -30 124 -30 l80 0 53 56 c83 90 91 166 28 267
-15 25 -39 53 -53 63 -31 22 -101 30 -157 19z"/>
<path d="M5522 7078 c-87 -545 -76 -783 46 -1067 61 -140 117 -191 251 -226
119 -31 223 16 304 137 122 184 121 431 -3 878 -72 262 -84 295 -108 298 -26
4 -21 32 -77 -433 -52 -429 -54 -445 -64 -445 -11 0 -86 162 -116 250 -14 41
-64 221 -111 400 -47 179 -89 329 -93 333 -5 5 -18 -52 -29 -125z"/>
<path d="M3235 6906 c-290 -82 -368 -100 -640 -146 -299 -50 -329 -58 -835
-201 -289 -82 -534 -153 -545 -158 -14 -6 1 -10 55 -15 164 -13 863 -48 998
-50 l143 -1 -5 -25 c-3 -14 -10 -113 -17 -220 l-12 -195 71 -675 71 -675 76
-350 c54 -247 81 -354 92 -363 9 -6 20 -9 24 -5 3 5 34 85 68 178 53 147 63
188 76 300 48 404 23 879 -86 1607 -38 257 -69 469 -69 471 0 3 35 17 78 32
259 93 479 236 751 487 54 50 60 60 51 78 -6 11 -12 20 -13 19 -1 0 -150 -42
-332 -93z"/>
<path d="M4168 6340 c-187 -33 -386 -145 -549 -309 -181 -180 -296 -398 -355
-671 -26 -119 -26 -410 -1 -528 87 -395 306 -671 685 -861 198 -99 368 -143
562 -144 249 -1 435 56 656 202 275 181 471 468 536 780 26 124 28 337 4 470
-49 274 -152 470 -345 661 -87 87 -122 114 -196 152 -124 64 -222 90 -349 90
-245 1 -482 -85 -617 -223 -88 -91 -157 -277 -106 -287 11 -2 25 6 35 20 59
83 160 161 260 198 31 12 101 30 155 41 239 46 402 4 553 -146 81 -80 141
-165 190 -268 57 -122 69 -183 68 -352 -1 -179 -19 -259 -90 -405 -41 -83 -60
-108 -153 -200 -194 -192 -351 -254 -646 -254 -163 -1 -220 12 -361 79 -201
94 -318 206 -408 388 -85 171 -100 237 -100 442 1 151 3 181 26 266 52 192
139 340 285 486 80 78 108 99 200 146 146 73 193 90 371 133 85 20 150 40 145
44 -4 5 -46 19 -93 31 -94 24 -280 34 -362 19z"/>
<path d="M1166 5458 c-13 -18 -16 -53 -16 -169 0 -81 -3 -160 -6 -177 -5 -27
-9 -30 -25 -22 -10 6 -35 10 -55 10 -31 0 -44 -7 -78 -43 -90 -95 -153 -325
-112 -406 37 -71 137 -94 195 -45 44 37 147 177 161 218 6 20 15 36 19 36 4 0
18 -29 31 -65 13 -36 30 -65 37 -65 17 0 17 -5 -13 113 -27 103 -29 137 -26
327 3 129 -20 279 -45 297 -25 19 -50 16 -67 -9z m-28 -423 c10 -9 -31 -144
-67 -220 -43 -91 -81 -134 -99 -112 -9 10 -6 43 9 132 20 120 45 185 76 205
16 9 70 6 81 -5z"/>
<path d="M1560 5248 c-100 -60 -145 -180 -120 -319 14 -80 42 -127 90 -151 81
-41 166 -10 239 87 58 76 44 90 -41 42 -35 -19 -83 -41 -107 -48 -42 -12 -45
-12 -63 11 -12 14 -18 35 -16 54 3 29 6 31 50 36 62 8 97 34 131 100 39 77 38
150 -2 191 -41 40 -90 39 -161 -3z"/>
<path d="M4464 5251 c-54 -33 -84 -149 -48 -186 30 -30 93 -55 138 -55 44 0
46 1 69 48 50 100 42 156 -27 190 -53 27 -92 28 -132 3z"/>
<path d="M8370 4764 c-215 -57 -427 -249 -553 -499 -170 -339 -178 -796 -21
-1113 163 -329 473 -390 860 -171 109 62 138 84 241 187 122 121 219 231 387
436 73 89 94 121 84 127 -7 5 -18 9 -24 9 -6 0 -80 -48 -165 -108 -212 -148
-643 -416 -704 -436 -74 -26 -201 -32 -247 -13 -104 44 -168 242 -152 473 6
91 9 104 23 98 38 -17 72 -15 113 5 124 60 311 277 410 476 56 110 78 194 78
295 0 80 -3 94 -33 152 -30 58 -37 64 -82 80 -61 21 -142 22 -215 2z m44 -366
c-34 -150 -100 -289 -201 -422 -38 -50 -73 -91 -79 -93 -6 -2 -15 7 -21 19 -8
17 -4 45 14 113 46 174 161 363 255 419 24 14 44 26 45 26 1 0 -5 -28 -13 -62z"/>
<path d="M2019 4614 c-286 -51 -575 -244 -733 -487 -139 -213 -234 -496 -254
-751 l-7 -98 -287 -187 c-188 -121 -288 -192 -288 -203 0 -15 12 -16 108 -12
59 2 189 6 289 8 l182 5 11 -57 c29 -147 76 -321 131 -490 133 -403 280 -702
491 -997 118 -165 120 -168 142 -152 18 13 16 26 -52 288 -109 423 -205 885
-241 1154 -32 243 -41 339 -33 345 4 4 45 22 92 42 116 50 198 98 474 277
l236 155 0 38 0 38 -77 -5 c-43 -2 -141 -7 -218 -10 -77 -3 -218 -15 -313 -26
-96 -11 -176 -18 -179 -15 -4 3 -1 52 6 108 27 221 90 389 201 537 113 149
284 280 554 422 65 34 104 60 96 63 -79 27 -215 31 -331 10z"/>
<path d="M7165 4193 c-266 -163 -439 -385 -555 -708 -42 -116 -52 -259 -25
-351 45 -157 144 -273 300 -350 l98 -49 146 0 146 0 191 68 c167 60 191 71
187 88 -6 22 -10 23 -128 44 -150 26 -398 86 -437 106 -47 24 -94 82 -103 126
-12 66 -6 202 15 305 17 87 34 131 111 288 49 102 126 239 170 305 43 67 79
126 79 131 0 13 -66 34 -106 34 -17 0 -56 -16 -89 -37z"/>
<path d="M5765 3818 c-81 -45 -139 -155 -209 -397 -20 -68 -37 -126 -39 -128
-2 -2 -40 91 -83 207 -43 115 -83 210 -87 210 -4 0 -5 -28 -2 -62 9 -112 28
-1075 22 -1107 -6 -27 -1 -34 44 -70 63 -50 145 -91 197 -98 37 -5 39 -4 72
46 40 64 122 310 187 569 26 105 50 192 53 192 3 0 40 -94 83 -208 l78 -207
120 -165 c66 -91 125 -166 132 -167 38 -8 36 12 -53 412 -160 724 -193 833
-276 919 -20 21 -52 45 -70 52 -40 17 -141 18 -169 2z"/>
<path d="M4538 3545 c-31 -17 -152 -167 -231 -287 -183 -276 -453 -834 -508
-1046 -25 -97 -25 -194 0 -249 22 -48 43 -56 180 -75 129 -17 242 1 334 53
260 147 448 396 493 653 8 44 16 81 18 83 2 2 51 -51 110 -117 95 -107 126
-131 126 -99 0 19 -280 632 -297 652 -10 11 -33 26 -51 34 -30 12 -39 12 -77
-3 -25 -9 -56 -32 -74 -54 -30 -38 -31 -41 -31 -144 0 -147 -24 -297 -60 -373
-33 -71 -107 -151 -168 -182 -23 -12 -43 -21 -46 -21 -7 0 41 216 80 354 19
72 58 192 86 266 50 136 174 400 187 400 4 0 15 -16 24 -35 9 -19 20 -35 25
-35 9 0 37 76 47 127 7 36 -15 87 -44 103 -28 14 -91 12 -123 -5z"/>
<path d="M2707 3430 c-238 -60 -319 -280 -304 -825 6 -222 29 -504 48 -605 12
-63 116 -381 128 -393 12 -12 12 -11 91 648 39 325 79 624 88 665 l17 74 47
-63 c115 -153 118 -343 7 -562 -43 -85 -53 -116 -57 -170 -2 -38 1 -82 7 -102
21 -63 170 -180 314 -247 34 -16 176 -66 316 -111 204 -66 255 -79 262 -68 5
8 7 18 6 24 -2 5 -134 106 -293 223 -159 117 -295 219 -302 226 -11 11 -8 22
21 67 149 233 211 477 173 674 -18 93 -77 219 -137 296 -83 104 -181 198 -233
224 -58 28 -143 39 -199 25z"/>
</g>
</svg>
